<svg xmlns="http://www.w3.org/2000/svg" xml:space="preserve" viewBox="0 0 459.994 459.994">
  <path fill="#fee187" d="M230.004 0c-127.025 0-230 102.975-230 230 0 115.601 85.285 211.283 196.369 227.559l261.349-260.09C441.918 85.849 345.986 0 230.004 0z"/>
  <path fill="#ffc61b" d="M392.638 392.635c53.773-53.773 75.339-127.546 64.728-197.373L361.29 99.185 99.66 360.815l96.723 96.723c69.496 10.212 142.769-11.418 196.255-64.903z"/>
  <path fill="#d48b07" d="M415.337 229.667c0 102.175-82.824 185-185 185l-129.5-185 129.5-185c102.175 0 185 82.824 185 185z"/>
  <path fill="#e0a300" d="M45.337 229.667c0 102.175 82.825 185 185 185v-370c-102.176 0-185 82.824-185 185z"/>
  <path fill="#fee187" d="m230.337 384.667-96.875-155 96.875-155c85.468 0 155 69.532 155 155s-69.533 155-155 155z"/>
  <path fill="#ffedb5" d="M75.337 229.667c0 85.468 69.532 155 155 155v-310c-85.468 0-155 69.532-155 155z"/>
  <path fill="#ffedb5" d="m230.337 364.667-84.375-135 84.375-135c74.44 0 135 60.56 135 135s-60.561 135-135 135z"/>
  <path fill="#fff" d="M95.337 229.667c0 74.439 60.56 135 135 135v-270c-74.44 0-135 60.56-135 135z"/>
  <path fill="#ffc61b" d="m247.477 224.594-7.141-2.256v-77.282c15.475 4.37 26.853 18.608 26.853 35.462h20c0-27.936-20.259-51.213-46.853-55.954v-20.899h-20v20.899c-26.594 4.741-46.853 28.018-46.853 55.954 0 27.265 13.732 46.014 39.713 54.22l7.14 2.255v77.282c-15.475-4.37-26.853-18.608-26.853-35.462h-20c0 27.935 20.259 51.212 46.853 55.954v20.898h20v-20.898c26.594-4.741 46.853-28.018 46.853-55.954 0-27.263-13.732-46.012-39.712-54.219zm-28.257-8.926c-17.559-5.546-25.736-16.715-25.736-35.149 0-16.854 11.378-31.092 26.853-35.462v70.964l-1.117-.353zm21.117 98.608v-70.964l1.117.353c17.558 5.546 25.735 16.715 25.735 35.149 0 16.855-11.378 31.092-26.852 35.462z"/>
</svg>